# xmcd
#
# Track frame offsets:
#	150
#	16093
#	37858
#	54495
#	74112
#	91615
#	112145
#	127498
#	146064
#	161395
#	173731
#
# Disc length: 2657 seconds
#
# Revision: 2
# Processed by: cddbd v1.5.2PL0 Copyright (c) Steve Scherf et al.
# Submitted via: audiograbber 1.83.01
#
DISCID=960a5f0b
DTITLE=Fiona Boyes - Box and Dice
DYEAR=2015
DGENRE=Blues
TTITLE0=Juke Joint On Moses Lane Frosch
TTITLE1=I'm A Stranger Here By
TTITLE2=Walking Round Money (10000$)
TTITLE3=Smokestack Lightning (Blitz)
TTITLE4=Louisiana
TTITLE5=Black Mountain Blues
TTITLE6=Mama's Sanctified Ampel
TTITLE7=I Done Quit
TTITLE8=Walk With Me
TTITLE9=Tiny Pinch Of Sin
TTITLE10=Easy Baby
EXTD=
EXTT0=
EXTT1=
EXTT2=
EXTT3=
EXTT4=
EXTT5=
EXTT6=
EXTT7=
EXTT8=
EXTT9=
EXTT10=
PLAYORDER=
